HIERARCHY
ROOT Hips
{
	OFFSET 0.00000 0.00000 0.00000
	CHANNELS 6 Xposition Yposition Zposition Zrotation Yrotation Xrotation 
	JOINT LHipJoint
	{
		OFFSET 0 0 0
		CHANNELS 3 Zrotation Yrotation Xrotation
		JOINT LeftUpLeg
		{
			OFFSET 1.38615 -1.80049 0.80104
			CHANNELS 3 Zrotation Yrotation Xrotation
			JOINT LeftLeg
			{
				OFFSET 2.50172 -6.87341 0.00000
				CHANNELS 3 Zrotation Yrotation Xrotation
				JOINT LeftFoot
				{
					OFFSET 2.67523 -7.35014 0.00000
					CHANNELS 3 Zrotation Yrotation Xrotation
					JOINT LeftToeBase
					{
						OFFSET 0.17446 -0.47932 2.13155
						CHANNELS 3 Zrotation Yrotation Xrotation
						End Site
						{
							OFFSET 0.00000 -0.00000 1.10023
						}
					}
				}
			}
		}
	}
	JOINT RHipJoint
	{
		OFFSET 0 0 0
		CHANNELS 3 Zrotation Yrotation Xrotation
		JOINT RightUpLeg
		{
			OFFSET -1.18047 -1.80049 0.80104
			CHANNELS 3 Zrotation Yrotation Xrotation
			JOINT RightLeg
			{
				OFFSET -2.59789 -7.13765 0.00000
				CHANNELS 3 Zrotation Yrotation Xrotation
				JOINT RightFoot
				{
					OFFSET -2.62125 -7.20183 0.00000
					CHANNELS 3 Zrotation Yrotation Xrotation
					JOINT RightToeBase
					{
						OFFSET -0.31287 -0.85960 2.07814
						CHANNELS 3 Zrotation Yrotation Xrotation
						End Site
						{
							OFFSET -0.00000 -0.00000 1.11766
						}
					}
				}
			}
		}
	}
	JOINT LowerBack
	{
		OFFSET 0 0 0
		CHANNELS 3 Zrotation Yrotation Xrotation
		JOINT Spine
		{
			OFFSET -0.01587 2.16157 -0.12309
			CHANNELS 3 Zrotation Yrotation Xrotation
			JOINT Spine1
			{
				OFFSET 0.04727 2.16674 -0.03569
				CHANNELS 3 Zrotation Yrotation Xrotation
				JOINT Neck
				{
					OFFSET 0 0 0
					CHANNELS 3 Zrotation Yrotation Xrotation
					JOINT Neck1
					{
						OFFSET -0.08586 1.60335 0.32783
						CHANNELS 3 Zrotation Yrotation Xrotation
						JOINT Head
						{
							OFFSET 0.07583 1.65857 -0.31618
							CHANNELS 3 Zrotation Yrotation Xrotation
							End Site
							{
								OFFSET 0.03386 1.69434 -0.14584
							}
						}
					}
				}
				JOINT LeftShoulder
				{
					OFFSET 0 0 0
					CHANNELS 3 Zrotation Yrotation Xrotation
					JOINT LeftArm
					{
						OFFSET 3.17393 1.01901 -0.52897
						CHANNELS 3 Zrotation Yrotation Xrotation
						JOINT LeftForeArm
						{
							OFFSET 5.25287 -0.00000 -0.00000
							CHANNELS 3 Zrotation Yrotation Xrotation
							JOINT LeftHand
							{
								OFFSET 3.51014 -0.00000 0.00000
								CHANNELS 3 Zrotation Yrotation Xrotation
								JOINT LeftFingerBase
								{
									OFFSET 0 0 0
									CHANNELS 3 Zrotation Yrotation Xrotation
									JOINT LeftHandIndex1
									{
										OFFSET 0.70618 -0.00000 -0.00000
										CHANNELS 3 Zrotation Yrotation Xrotation
										End Site
										{
											OFFSET 0.56934 -0.00000 -0.00000
										}
									}
								}
								JOINT LThumb
								{
									OFFSET 0 0 0
									CHANNELS 3 Zrotation Yrotation Xrotation
									End Site
									{
										OFFSET 0.57803 -0.00000 0.57803
									}
								}
							}
						}
					}
				}
				JOINT RightShoulder
				{
					OFFSET 0 0 0
					CHANNELS 3 Zrotation Yrotation Xrotation
					JOINT RightArm
					{
						OFFSET -2.99471 1.26495 -0.61125
						CHANNELS 3 Zrotation Yrotation Xrotation
						JOINT RightForeArm
						{
							OFFSET -5.28721 -0.00000 -0.00000
							CHANNELS 3 Zrotation Yrotation Xrotation
							JOINT RightHand
							{
								OFFSET -3.50544 -0.00000 0.00000
								CHANNELS 3 Zrotation Yrotation Xrotation
								JOINT RightFingerBase
								{
									OFFSET 0 0 0
									CHANNELS 3 Zrotation Yrotation Xrotation
									JOINT RightHandIndex1
									{
										OFFSET -0.88500 -0.00000 -0.00000
										CHANNELS 3 Zrotation Yrotation Xrotation
										End Site
										{
											OFFSET -0.71351 -0.00000 -0.00000
										}
									}
								}
								JOINT RThumb
								{
									OFFSET 0 0 0
									CHANNELS 3 Zrotation Yrotation Xrotation
									End Site
									{
										OFFSET -0.72440 -0.00000 0.72440
									}
								}
							}
						}
					}
				}
			}
		}
	}
}
MOTION
Frames: 12
Frame Time: 0.0714286
0.00 0.00 0.00 0 0 0 0 0 0 -21 0 0 0 0 0 0 0 0 0 0 0 0 0 0 21 0 0 0 0 0 0 0 0 0 0 0 0 0 0 0 0 0 0 0 0 0 0 -16 0 0 21 0 0 11 0 0 0 -8 0 0 0 0 0 0 0 0 0 0 0 0 0 0 0 0 0 0 0 0 8 0 0 0 0 0 0 0 0 0 0 0 0 0 0 0 0 0
0.00 0.00 0.00 5.6668 12.7447 7.4875 0.0000 0.0000 0.0000 -2.9819 -3.9419 -36.5611 6.6249 15.0077 47.4408 0.2890 -8.4698 -10.5095 0.5218 -4.6296 -12.8551 0.0000 0.0000 0.0000 2.4179 -0.8568 -45.2419 -10.1421 -17.4890 59.9622 -1.5539 0.0143 -23.5873 -0.9639 6.2512 -17.5150 -2.7765 0.5956 21.6587 2.9320 0.4512 7.2276 4.6323 0.2109 -4.2490 -11.0827 -4.2491 -23.0440 3.1526 -2.8008 19.8180 2.5003 -1.7519 10.3723 -0.0000 0.0000 0.0000 -88.1517 -28.3582 37.1588 42.8053 -49.6469 -20.5523 -0.0000 -0.0000 4.6706 4.1256 44.0431 2.8707 -7.1250 0.0000 -0.0000 -47.8938 68.3740 -29.2931 -0.0000 0.0000 0.0000 71.6846 14.6370 -2.0289 -68.5324 58.1849 -41.5218 0.0000 -0.0000 -22.9084 -21.6443 15.9037 -6.2058 7.1250 -0.0000 -0.0000 4.0532 -12.9690 3.0480
0.00 0.00 0.00 5.2313 11.9855 9.0711 0.0000 0.0000 0.0000 2.4858 -11.2678 -34.6947 2.7279 10.2409 29.7605 -0.0777 -7.2625 -3.0261 2.2922 -9.4499 -27.2132 0.0000 0.0000 0.0000 1.5336 -1.0949 -45.3967 -10.7205 -17.7956 61.8704 -1.8902 1.1959 -25.6712 -0.8075 5.7349 -16.0172 -2.7841 0.7798 22.8453 2.6766 0.6501 7.5054 4.3169 0.3114 -4.5656 -11.5983 -4.7626 -23.2447 4.5651 -3.6404 18.0089 2.9420 -1.9616 9.8532 0.0000 0.0000 0.0000 -89.4362 -36.3435 45.3226 40.7105 -48.4852 -18.9695 -0.0000 -0.0000 9.4931 5.6116 42.3195 3.7847 -7.1250 0.0000 -0.0000 -43.2865 67.6742 -25.4151 0.0000 0.0000 0.0000 67.8514 24.7440 -2.8694 -70.3443 58.4886 -43.0640 0.0000 -0.0000 -24.5920 -22.7451 16.9302 -6.9604 7.1250 -0.0000 -0.0000 3.3859 -11.7379 2.6310
0.00 0.00 0.00 3.6961 6.9861 9.5093 0.0000 0.0000 0.0000 3.8833 -8.5499 -39.9979 4.1089 12.3039 36.8158 0.0149 -9.6434 -7.0152 4.0843 -12.2718 -36.7003 0.0000 0.0000 0.0000 -2.5576 -4.1053 -54.6893 -15.4117 -19.4876 76.4738 -0.4155 6.7627 -11.7078 -1.6293 8.0470 -22.8570 -3.3940 1.7796 25.5779 2.4966 1.6889 7.8854 4.1832 0.8155 -5.6135 -11.1067 -4.7674 -23.6259 5.2897 -3.9131 16.6313 3.0641 -1.9390 9.4540 -0.0000 0.0000 0.0000 -96.6035 -48.6378 59.7886 34.6690 -44.5743 -14.5805 -0.0000 -0.0000 21.1140 20.4582 45.9156 15.0011 -7.1250 0.0000 -0.0000 -35.8026 75.3739 -26.3223 -0.0000 0.0000 0.0000 61.1038 41.4323 -1.6841 -76.2259 59.2708 -48.1005 0.0000 -0.0000 -30.5582 -20.1890 14.8067 -5.3684 7.1250 -0.0000 -0.0000 4.9792 -14.2926 3.6097
0.00 0.00 0.00 1.1473 1.8695 8.4693 0.0000 0.0000 0.0000 4.8206 -4.7417 -45.1328 8.4392 16.4330 54.1297 0.6959 -11.8754 -15.9362 3.4289 -11.3590 -33.5004 0.0000 0.0000 0.0000 -6.8579 -4.2320 -63.8974 -16.0486 -19.6215 78.3764 -0.0212 0.2387 -2.6713 -0.3710 3.9122 -10.8298 -3.3249 3.1679 31.4855 3.4759 3.3439 8.7464 4.6245 1.5916 -7.6813 -11.7449 -4.8340 -23.2716 5.4807 -3.7884 12.3853 3.2178 -1.8266 7.9341 0.0000 0.0000 0.0000 -105.7490 -57.1617 76.9927 30.1873 -41.0534 -11.5325 -0.0000 -0.0000 23.9355 13.1430 49.2120 10.0257 -7.1250 0.0000 -0.0000 -52.7673 74.6099 -39.2698 0.0000 0.0000 0.0000 55.6071 60.7042 0.3259 -81.8427 59.7471 -52.9416 0.0000 -0.0000 -34.4201 -20.4916 9.9979 -3.7123 7.1250 -0.0000 -0.0000 4.6264 -19.3400 2.8424
0.00 0.00 0.00 0.7470 -0.1925 10.0221 0.0000 0.0000 0.0000 4.9810 -5.0257 -45.9308 9.1827 16.9238 56.7197 1.1101 -9.3430 -18.9660 3.4316 -11.3629 -33.5139 0.0000 0.0000 0.0000 -9.9286 -0.1746 -62.1525 -11.0975 -17.9825 63.0979 0.0101 4.8413 -3.0308 -0.9048 6.0616 -16.9633 -3.0776 3.8635 33.3909 3.6773 4.2147 8.1121 3.9717 1.9680 -8.5883 -11.8369 -5.1432 -22.9780 4.7529 -4.0571 10.5957 2.9404 -2.0007 7.2935 0.0000 -0.0000 0.0000 -106.3504 -56.2900 79.0414 32.6065 -43.0254 -13.1528 -0.0000 -0.0000 26.1731 19.6835 58.1686 16.9054 -7.1250 0.0000 -0.0000 -90.8633 78.9263 -79.5945 0.0000 -0.0000 0.0000 59.4487 67.2376 5.6433 -84.9174 59.9022 -55.5998 0.0000 -0.0000 -35.3560 -18.8423 9.0664 -3.0781 7.1250 -0.0000 -0.0000 5.7974 -20.4323 3.4262
0.00 0.00 0.00 -0.9265 -0.7055 12.2971 0.0000 0.0000 0.0000 7.0322 -4.5621 -47.5548 9.5801 17.1668 58.0754 1.2288 -10.0241 -19.9913 2.5700 -9.9641 -28.8605 0.0000 0.0000 0.0000 -10.8441 3.3624 -59.0838 -6.3048 -14.7174 46.1931 0.1269 6.3149 1.9020 -2.9088 10.5459 -30.7633 -0.6896 4.0057 34.2144 3.8245 5.1959 7.6073 2.4417 2.3854 -9.3786 -13.1100 -6.0429 -23.0106 5.3747 -4.9571 9.5914 3.2238 -2.4038 7.0871 0.0000 0.0000 0.0000 -104.4676 -52.3991 77.7496 39.0429 -47.4925 -17.7304 -0.0000 -0.0000 28.8567 26.5218 64.4423 24.2384 -7.1250 0.0000 -0.0000 -116.4989 -78.2645 127.6533 0.0000 0.0000 0.0000 65.4690 71.1854 12.7538 -90.7650 59.9978 -60.6625 0.0000 -0.0000 -37.1657 -16.7594 6.8265 -2.0500 7.1250 -0.0000 -0.0000 7.3420 -22.8691 3.9431
0.00 0.00 0.00 1.9466 6.2561 14.9676 0.0000 0.0000 0.0000 6.5618 -6.0076 -48.8040 8.7581 16.6495 55.2497 1.3189 -13.2647 -21.2125 3.6327 -11.6549 -34.5217 0.0000 0.0000 0.0000 -11.9415 1.1998 -57.7340 -6.0005 -14.4288 44.9836 -0.0070 3.3361 -2.6723 -3.0513 10.7776 -31.5335 0.5248 4.6387 35.3668 4.1029 6.5061 7.5135 1.5245 2.9763 -9.8948 -15.4894 -9.4646 -19.3422 7.6680 -9.6774 5.1527 3.8048 -4.5579 5.7319 0.0000 0.0000 0.0000 -104.4811 -49.7593 86.6116 47.1602 -51.7839 -23.9243 -0.0000 -0.0000 29.2301 42.6144 63.6732 39.5085 -7.1250 0.0000 -0.0000 -146.5339 -78.7151 153.2779 0.0000 0.0000 0.0000 64.8144 73.2418 12.5097 -108.2952 58.6967 -75.7747 0.0000 -0.0000 -38.3382 -6.6439 3.9340 -0.4579 7.1250 -0.0000 -0.0000 15.0114 -25.9611 7.1592
0.00 0.00 0.00 6.0671 18.4214 17.5627 0.0000 0.0000 0.0000 5.7617 -5.5735 -50.1844 7.0753 15.3950 49.1586 0.9862 -10.0618 -18.0373 1.1417 -6.7854 -19.0811 0.0000 0.0000 0.0000 -13.6817 -4.4397 -60.2269 -10.2265 -17.5353 60.2427 -0.4610 1.1517 -12.4771 -3.4848 11.4413 -33.7829 4.4307 1.6890 36.7413 4.5265 4.5268 6.8363 0.6865 2.0098 -10.6953 -16.2776 -10.9025 -17.1066 8.0781 -11.7142 1.1607 3.9250 -5.5281 4.4134 0.0000 -0.0000 0.0000 -99.0403 -46.0024 83.6468 58.5030 -55.8977 -33.0985 -0.0000 -0.0000 28.6513 37.0923 62.5784 33.8668 -7.1250 0.0000 -0.0000 -133.5610 -80.1676 141.1481 0.0000 -0.0000 0.0000 71.8847 74.9172 15.2667 -121.4681 55.9059 -86.8775 0.0000 -0.0000 -55.1267 -4.6769 0.5022 -0.0411 7.1250 -0.0000 -0.0000 16.9672 -29.2553 6.7841
0.00 0.00 0.00 8.3398 14.5290 20.4540 0.0000 0.0000 0.0000 1.8910 -0.0992 -48.1114 11.5047 18.1733 64.4101 1.1039 -20.5139 -22.1672 4.3245 -12.5802 -37.8166 0.0000 0.0000 0.0000 -20.1200 -3.9330 -63.2573 -10.4572 -17.6590 61.0057 -0.4366 2.3408 -11.8936 -3.2792 11.1339 -32.7327 4.1852 1.5707 35.5810 5.4911 4.3587 6.2256 1.8883 1.9201 -11.1921 -16.2423 -10.4804 -16.0079 7.5662 -11.2334 -2.7589 3.9581 -5.2648 2.9363 0.0000 0.0000 0.0000 -95.4348 -43.7193 81.2165 74.4194 -59.0626 -46.5493 -0.0000 -0.0000 23.4658 46.8545 65.2797 44.1025 -7.1250 0.0000 -0.0000 -153.2252 -76.5895 159.8873 0.0000 0.0000 0.0000 42.9306 77.5306 -11.3065 -122.9147 55.4819 -88.0726 0.0000 -0.0000 -61.1570 -2.1558 -7.0816 0.2659 7.1250 -0.0000 -0.0000 20.5241 -36.3419 4.6126
0.00 0.00 0.00 8.2933 27.7353 21.1931 0.0000 0.0000 0.0000 2.0061 5.1177 -59.4162 12.2581 18.4976 66.8046 -0.6210 -32.6061 -19.9380 1.6841 -8.1744 -23.2451 0.0000 0.0000 0.0000 -20.6828 -9.0623 -63.2869 -13.7237 -19.0281 71.3589 -0.7201 -2.1547 -16.9507 -2.0926 9.0563 -25.9715 2.3533 -0.0718 37.2598 4.7820 1.8155 4.6012 3.1634 0.8500 -13.5437 -14.2024 -12.6617 -14.0581 13.4841 -15.0826 -3.0339 5.0789 -7.0586 3.4205 0.0000 0.0000 0.0000 -104.4418 -49.5613 92.5474 72.7805 -58.8494 -45.1451 -0.0000 -0.0000 24.8985 38.3163 67.4124 36.1145 -7.1250 0.0000 -0.0000 -140.9576 -76.1140 150.5829 0.0000 0.0000 0.0000 19.5020 70.5872 -45.2195 -121.6365 55.8578 -87.0170 0.0000 -0.0000 -68.5550 -7.1607 -3.1106 0.3906 7.1250 -0.0000 -0.0000 15.6714 -32.8149 4.8349
0.00 0.00 0.00 6.0834 24.3117 23.2362 0.0000 0.0000 0.0000 6.6474 8.0448 -57.2957 13.4004 18.9220 70.3646 1.8507 -15.9479 -25.2577 3.5371 -11.5175 -34.0458 0.0000 0.0000 0.0000 -18.5761 -11.5804 -72.0787 -13.8129 -19.0563 71.6322 -0.4470 1.1258 -12.2877 -2.6970 10.1877 -29.5866 5.2996 0.1508 35.5578 4.5789 3.1717 2.5546 0.7769 1.2163 -15.2619 -15.6386 -12.3545 -17.7327 8.8409 -13.8274 2.9010 3.7139 -6.5208 5.3181 0.0000 0.0000 0.0000 -102.4532 -51.1931 90.3632 76.7676 -59.3279 -48.5663 -0.0000 -0.0000 20.2736 25.9195 71.2970 24.7181 -7.1250 0.0000 -0.0000 -130.2930 -73.4876 144.3178 0.0000 0.0000 0.0000 16.2211 73.5920 -49.0425 -107.3692 58.8288 -74.9830 0.0000 -0.0000 -70.2358 -16.9914 3.3830 -1.0330 7.1250 -0.0000 -0.0000 7.3103 -26.4290 3.3178
